<?xml version="1.0" standalone="no"?>
<!DOCTYPE svg PUBLIC "-//W3C//DTD SVG 20010904//EN"
 "http://www.w3.org/TR/2001/REC-SVG-20010904/DTD/svg10.dtd">
<svg version="1.0" xmlns="http://www.w3.org/2000/svg"
 width="512.000000pt" height="512.000000pt" viewBox="0 0 512.000000 512.000000"
 preserveAspectRatio="xMidYMid meet">

<g transform="translate(0.000000,512.000000) scale(0.100000,-0.100000)"
fill="#000000" stroke="none">
<path d="M2852 4479 c-51 -26 -95 -76 -111 -128 -7 -26 -11 -164 -11 -423 l0
-385 -112 -7 c-1138 -68 -2055 -944 -2178 -2078 -5 -54 -10 -228 -10 -388 0
-267 2 -294 19 -328 67 -131 231 -162 334 -64 16 15 62 75 103 134 391 565
860 960 1319 1112 149 49 236 65 392 73 l132 6 3 -424 3 -424 28 -47 c49 -84
145 -122 240 -94 50 15 88 51 854 818 440 442 808 817 817 835 22 44 20 128
-4 177 -13 28 -280 301 -817 837 -691 689 -804 797 -839 807 -61 18 -114 15
-162 -9z m1318 -1724 c0 -6 -227 -237 -504 -514 l-504 -504 -4 249 -3 249 -28
47 c-49 85 -138 118 -362 138 -392 34 -847 -99 -1246 -366 -186 -123 -326
-240 -500 -415 l-146 -147 14 76 c125 672 624 1239 1278 1452 203 65 307 81
585 89 275 8 298 14 358 87 45 55 52 100 52 351 l0 228 505 -505 c278 -278
505 -509 505 -515z"/>
</g>
</svg>
