<?xml version="1.0" standalone="no"?>
<!DOCTYPE svg PUBLIC "-//W3C//DTD SVG 20010904//EN"
 "http://www.w3.org/TR/2001/REC-SVG-20010904/DTD/svg10.dtd">
<svg version="1.0" xmlns="http://www.w3.org/2000/svg"
 width="980.000000pt" height="904.000000pt" viewBox="0 0 980.000000 904.000000"
 preserveAspectRatio="xMidYMid meet">

<g transform="translate(0.000000,904.000000) scale(0.100000,-0.100000)"
fill="#000000" stroke="none">
<path d="M5367 9006 c-144 -60 -224 -175 -247 -356 -5 -42 -10 -422 -10 -863
l0 -787 -227 6 c-1078 30 -2069 -280 -2929 -916 -341 -252 -706 -618 -974
-975 -913 -1216 -1211 -2834 -794 -4315 39 -136 221 -746 230 -770 3 -8 57
156 120 365 142 472 152 503 230 701 345 875 949 1608 1729 2096 710 445 1525
660 2398 632 l217 -7 0 -746 c0 -410 5 -778 10 -817 25 -195 131 -330 290
-370 108 -27 230 -2 345 71 81 51 3846 3067 3891 3116 153 169 193 405 101
609 -60 135 11 74 -2041 1717 -2160 1728 -2021 1624 -2189 1630 -79 3 -100 0
-150 -21z m2088 -1976 c1181 -945 1875 -1507 1883 -1524 18 -41 15 -90 -10
-121 -12 -15 -865 -702 -1895 -1526 l-1873 -1499 -2 943 -3 942 -135 8 c-74 4
-342 9 -595 10 -420 2 -475 0 -635 -20 -856 -107 -1594 -401 -2255 -896 -575
-432 -1034 -976 -1379 -1637 -42 -80 -76 -138 -76 -130 0 8 -5 47 -10 85 -5
39 -14 168 -20 287 -38 763 129 1549 475 2233 232 459 503 827 876 1190 687
670 1569 1079 2522 1171 145 14 244 15 627 10 250 -3 490 -9 533 -12 l77 -7 0
1002 c0 799 3 1001 13 995 6 -5 854 -681 1882 -1504z"/>
</g>
</svg>
